PathFileType	3	(X/Y/Z)	D:\minhoCalibration\240510\subject3_KPNP\preferred\preferred19.trc
DataRate	CameraRate	NumFrames	NumMarkers	Units	OrigDataRate	OrigDataStartFrame	OrigNumFrames
200.0	200.0	27	10	mm	200.0	222	131	
Frame#	Time	Left_Ankle_Outer1			Left_Ankle_Inner1			Left_Knee_Outer1			Left_Knee_Inner1			Left_Wrist1			Right_Wrist1			Right_Knee_Inner1			Right_Knee_Outer1			Right_Ankle_Inner1			Right_Ankle_Outer1			
		X1	Y1	Z1	X2	Y2	Z2	X3	Y3	Z3	X4	Y4	Z4	X5	Y5	Z5	X6	Y6	Z6	X7	Y7	Z7	X8	Y8	Z8	X9	Y9	Z9	X10	Y10	Z10	
222	1.1	-362.63437	92.103798	-520.93335	-417.48056	107.11137	-513.41296	-235.94707	506.11191	-412.71133	-324.12341	515.01086	-363.1709	-188.13455	894.7276	-580.64117	-496.63611	1056.5991	-450.02515	-408.61401	882.41705	-82.234299	-497.68698	942.7771	-105.46832	-491.20584	725.41858	302.33411	-582.38757	777.27747	292.8002
223	1.105	-360.72906	90.841812	-521.89209	-416.03162	105.70034	-514.80652	-235.89114	505.49298	-414.79953	-324.39813	513.98474	-366.0249	-186.45955	895.48657	-580.23474	-499.76013	1051.3549	-449.99091	-411.49777	875.10767	-83.893867	-500.98007	934.28784	-107.38599	-500.70511	702.55713	293.14685	-592.84607	752.98132	283.2088
224	1.11	-359.09238	89.918274	-522.88196	-414.86325	104.27106	-516.07123	-236.16672	504.86661	-416.50961	-325.44864	512.98291	-368.75754	-185.29352	895.96228	-579.48383	-502.80142	1045.837	-450.39398	-414.41412	867.71582	-85.506104	-505.17035	925.89673	-108.83997	-510.07486	679.33881	282.96561	-602.77673	728.22241	272.5304
225	1.115	-357.23145	89.292686	-523.9035	-413.98938	102.89091	-517.30164	-236.73711	504.33899	-417.88272	-326.8551	512.22131	-371.51035	-184.8423	896.26074	-578.53766	-505.51111	1039.8656	-451.45349	-417.25018	860.02161	-87.262665	-508.659	917.09137	-110.75716	-519.07635	655.99536	271.98633	-612.85669	703.46875	260.6564
226	1.12	-357.45773	87.649117	-524.01239	-413.50418	101.72034	-518.30786	-237.49863	503.77606	-418.99164	-328.51953	511.29956	-374.41837	-183.21773	896.60382	-577.95636	-508.08759	1034.0686	-452.79004	-420.12625	851.95935	-89.096329	-512.16046	907.62158	-112.8037	-528.60889	632.41479	260.61996	-622.48029	677.76837	247.65204
227	1.125	-357.48111	86.368706	-524.38275	-413.3764	100.56339	-519.11194	-238.42165	503.26675	-419.97672	-330.10477	511.16705	-376.5069	-181.88541	896.9845	-577.24658	-510.22714	1028.2864	-454.54596	-423.01404	843.37494	-91.07531	-515.58441	897.87067	-115.12316	-536.78949	608.5611	247.23859	-631.68732	652.65601	233.63698
228	1.13	-357.51642	85.446877	-524.84875	-413.52582	99.234627	-519.69696	-239.48833	502.83658	-420.75412	-332.02512	510.01971	-380.13986	-180.72563	897.16058	-576.51233	-512.04602	1022.6868	-456.63208	-425.93204	834.25323	-93.224174	-518.84528	887.9165	-117.25238	-545.99493	585.24011	233.93918	-640.53809	627.27429	218.04727
229	1.135	-358.96704	83.795876	-524.64838	-414.1236	98.014656	-520.08221	-240.70622	502.46411	-421.30374	-334.29657	509.453	-382.72086	-179.49158	897.388	-575.88007	-513.44879	1017.5812	-458.71558	-428.79797	824.30322	-95.772797	-522.07446	877.62555	-119.95039	-553.03644	561.47119	217.86063	-649.21021	602.11169	201.43193
230	1.14	-358.51773	83.566162	-525.59393	-415.04654	96.916252	-520.45343	-242.13777	502.02536	-421.80719	-336.86401	508.93903	-384.92963	-179.03429	897.1012	-574.72821	-514.81738	1012.2297	-461.7565	-431.66119	813.7572	-98.68161	-525.04291	867.12415	-123.0526	-561.19733	536.98541	201.75758	-655.94617	576.73029	184.07037
231	1.145	-360.09286	82.362152	-525.66333	-416.17575	95.67765	-520.66339	-243.88541	501.5856	-422.54382	-339.24915	508.58105	-387.47876	-178.19807	897.08447	-573.71185	-515.99811	1007.7618	-464.17401	-434.5235	802.66827	-101.79794	-528.54022	856.37164	-125.9598	-568.49731	514.30212	184.59705	-663.54639	552.29657	165.27235
232	1.15	-361.38885	81.117485	-526.08282	-417.51651	94.323402	-520.8244	-245.58417	501.09732	-423.01614	-341.70428	508.0676	-389.65863	-177.50775	896.97595	-572.60883	-517.16168	1003.8563	-466.74054	-437.35388	791.15643	-105.34665	-531.5459	845.99243	-129.13091	-575.33289	490.77493	166.01961	-670.81329	528.22296	145.39456
233	1.155	-363.01086	79.866035	-526.30511	-419.06598	93.147621	-521.05212	-247.18941	500.64444	-423.60248	-344.11334	507.09766	-392.31772	-176.83908	896.90765	-571.26276	-518.57599	1000.8828	-468.90924	-440.23087	779.29199	-109.29273	-534.74054	835.05798	-132.46146	-581.86273	467.14664	146.10619	-677.32031	504.68832	124.54621
234	1.16	-364.40909	78.725296	-526.75256	-420.62338	91.625717	-521.10388	-248.87999	500.1825	-424.42218	-346.25446	506.49905	-394.8483	-176.53568	896.65021	-569.83441	-520.14496	998.36377	-471.5679	-443.01074	767.30847	-113.6621	-538.26074	823.83502	-135.90915	-587.93365	444.03183	125.56332	-682.80493	481.26019	102.25099
235	1.165	-365.91809	77.319252	-527.20197	-422.22543	90.113396	-521.3634	-250.60814	499.54184	-425.33652	-348.15979	505.78928	-397.42258	-176.17677	896.4964	-568.2674	-521.76495	995.88171	-474.11993	-445.8588	755.28961	-118.32959	-541.44952	812.46277	-140.03169	-593.52747	422.05475	103.65725	-688.22095	458.55035	79.285469
236	1.17	-367.51697	75.535431	-527.7934	-423.72006	88.439262	-521.66589	-252.11304	498.89691	-426.6532	-350.32492	504.78513	-400.15466	-175.78293	896.39417	-566.76624	-523.36865	993.58527	-476.67474	-448.71967	743.31238	-123.29535	-544.61694	802.14178	-143.95535	-598.95898	399.71231	81.213539	-693.09467	436.6965	55.531212
237	1.175	-368.94547	73.759293	-528.3371	-425.15698	86.543091	-522.15466	-253.6692	497.91162	-428.1817	-352.41666	504.10516	-403.16397	-175.95053	896.12561	-564.94519	-524.90076	991.09857	-479.26624	-451.64038	731.40125	-128.70598	-548.35284	791.02362	-148.23372	-603.12006	378.49146	56.890984	-696.90436	415.12955	30.515802
238	1.18	-370.18256	71.592178	-529.13116	-426.24875	84.349983	-522.72668	-255.06038	496.72641	-430.14526	-353.61075	502.81924	-405.3533	-176.1105	895.87396	-563.16016	-526.44012	988.65814	-481.56561	-454.23669	719.74664	-134.99077	-551.40436	780.16455	-153.42152	-607.07404	357.49835	32.039989	-700.99194	395.30148	4.8155155
239	1.185	-370.90878	69.330482	-529.90192	-427.35669	81.873138	-523.56714	-256.57925	495.2963	-432.36243	-354.91257	501.32812	-408.08292	-176.4688	895.53613	-561.35846	-527.85138	985.94446	-484.02319	-457.63409	708.17926	-140.34773	-554.69739	768.83606	-158.54562	-609.77405	337.21152	5.2915959	-703.99341	375.45975	-20.877548
240	1.19	-371.73215	66.74752	-530.60388	-428.23746	79.137337	-524.1792	-257.81693	493.87692	-434.81479	-356.13416	499.66519	-410.52631	-177.86137	894.86597	-559.26099	-529.12329	982.53595	-486.80017	-460.3168	696.88214	-146.76398	-557.51605	757.82361	-164.49388	-612.55011	319.34756	-20.376713	-706.11267	357.1214	-47.573505
241	1.195	-374.10205	64.096924	-530.49921	-429.62283	77.141159	-524.81458	-258.81299	491.9306	-437.62494	-357.39157	497.55222	-413.09634	-177.20145	894.43512	-557.88293	-530.58765	979.76239	-488.73505	-463.93179	685.91406	-153.50824	-560.51263	747.42896	-170.42981	-613.99109	300.98004	-48.006977	-707.73492	338.11707	-75.311897
242	1.2	-374.95599	64.078156	-531.60681	-431.57437	76.03479	-524.76099	-259.45193	490.1138	-440.21368	-358.20633	495.81555	-415.04782	-177.79355	893.72229	-556.15222	-531.90625	976.38348	-490.92499	-467.36209	674.88483	-160.2462	-563.94556	736.81433	-176.85922	-614.97894	283.48969	-76.325668	-708.53784	321.26407	-103.0956
243	1.205	-376.04434	64.178558	-531.84198	-432.75644	75.663116	-524.81445	-259.8262	488.24228	-442.45801	-359.17572	493.06299	-418.54636	-178.53865	892.92267	-554.77533	-533.11865	972.69928	-493.25751	-470.73837	663.94421	-167.54523	-567.39191	726.36603	-184.06265	-615.05566	266.96686	-105.2509	-708.77435	304.79761	-131.93285
244	1.21	-377.09372	63.806019	-531.14563	-433.0574	75.649597	-524.53778	-260.05276	486.66998	-444.30856	-359.72479	491.52155	-420.67694	-179.82005	892.06287	-553.15485	-534.54315	969.17346	-495.41321	-474.2016	652.95947	-175.35312	-571.00018	715.68512	-191.97215	-614.30786	251.45796	-134.49843	-708.80219	289.42319	-160.93112
245	1.215	-377.01819	63.905949	-530.99371	-433.10837	75.816505	-524.24432	-260.28519	485.63196	-445.34375	-360.15366	490.03503	-422.56531	-179.37979	891.74341	-552.24213	-536.04077	965.76056	-497.68002	-477.67676	641.97021	-183.2995	-574.52429	705.34259	-200.27147	-612.96436	236.905	-163.87967	-707.84546	275.17358	-189.34885
246	1.22	-375.99734	64.212395	-531.2688	-432.69269	75.789734	-524.18774	-260.48087	485.67508	-445.72302	-360.06241	489.8866	-423.22787	-181.47408	890.81628	-550.73236	-537.66791	962.55664	-499.72464	-481.27237	630.77673	-191.77229	-578.60437	694.29572	-208.71555	-610.40173	223.51913	-193.32237	-706.03979	261.55536	-218.46286
247	1.225	-376.24835	63.540733	-530.76404	-432.33649	75.885056	-524.43103	-260.62106	486.64639	-445.73804	-359.33838	490.92395	-423.16489	-182.32613	890.34808	-549.73315	-539.30524	959.41809	-501.77521	-484.69785	619.68878	-200.48569	-582.37891	683.32391	-217.54742	-607.24786	211.73177	-222.58949	-703.57123	249.45056	-247.58635
248	1.23	-375.05249	64.071564	-531.23303	-432.1304	76.237595	-525.12799	-260.54398	488.28671	-445.60083	-359.06036	491.70544	-423.07352	-180.95166	890.76965	-549.52338	-540.98792	956.31982	-503.88449	-488.86578	608.52246	-209.68716	-586.68182	671.85596	-226.53441	-603.87799	200.90027	-252.03871	-700.11377	238.09261	-277.13751
